PathFileType	4	(X/Y/Z)	Patient4_TMGait_0pt4_02_left_27.trc.trc
DataRate	CameraRate	NumFrames	NumMarkers	Units	OrigDataRate	OrigDataStartFrame	OrigNumFrames
74.468085106383	74.468085106383	6	33	mm	74.468085106383	106	       141
Frame#	Time	Sacral			L.Shoulder			Chest			R.Shoulder			Neck			R.ASIS			L.ASIS			R.Thigh.Superior			R.Thigh.Lateral			R.Thigh.Inferior			R.Patella			L.Thigh.Superior			L.Thigh.Lateral			L.Thigh.Inferior			L.Patella			L.Shank.Superior			L.Shank.Lateral			L.Shank.Inferior			R.Shank.Superior			R.Shank.Lateral			R.Shank.Inferior			R.Heel			R.Midfoot.Superior			R.Midfoot.Lateral			R.Toe			L.Heel			L.Midfoot.Lateral			L.Midfoot.Superior			L.Toe			L.Elbow			L.Wrist			R.Elbow			R.Wrist			
		X1	Y1	Z1	X2	Y2	Z2	X3	Y3	Z3	X4	Y4	Z4	X5	Y5	Z5	X6	Y6	Z6	X7	Y7	Z7	X8	Y8	Z8	X9	Y9	Z9	X10	Y10	Z10	X11	Y11	Z11	X12	Y12	Z12	X13	Y13	Z13	X14	Y14	Z14	X15	Y15	Z15	X16	Y16	Z16	X17	Y17	Z17	X18	Y18	Z18	X19	Y19	Z19	X20	Y20	Z20	X21	Y21	Z21	X22	Y22	Z22	X23	Y23	Z23	X24	Y24	Z24	X25	Y25	Z25	X26	Y26	Z26	X27	Y27	Z27	X28	Y28	Z28	X29	Y29	Z29	X30	Y30	Z30	X31	Y31	Z31	X32	Y32	Z32	X33	Y33	Z33	

106	37.630000000000	911.193681021791	1007.646791112968	528.765120241970	1067.379358686929	1433.827599102228	324.785131718909	1189.099907641422	1369.506562757845	474.201744842817	1125.959547706104	1445.888102120357	655.370114948902	1067.851249624579	1498.628763259014	479.369843967543	1150.282511099913	944.108281300647	622.079041902741	1109.450921274699	969.565488059501	350.736913047271	1176.681528421597	738.480485726563	589.253059750659	1092.843422317741	632.159617637172	654.272312588282	1162.098217536775	577.245555628538	569.962067328637	1157.333989289763	490.346800235762	574.946074507637	1196.752784113442	789.210420179036	370.050266679184	1149.433384844339	662.330367817274	289.703745117019	1258.355663844043	603.273139375073	341.275978974066	1278.030890762857	522.200808395395	330.934246503259	1230.743142739889	449.194072309153	320.844701072358	1109.343344594524	365.910827062946	274.357104181795	1145.992422945116	236.542136191677	318.961708196748	1126.473499323902	402.116337334138	581.758150963960	1054.385222730919	300.618997180843	645.465416526439	1088.662736267850	205.066905245829	578.276828358162	948.408115911417	43.426478708017	551.584148840562	1120.578475407898	96.710789443374	583.743005399845	1033.136215411265	37.446111936092	624.581718343929	1241.316131497076	42.411480269561	608.695559571143	994.567892932417	107.927548227739	360.758887674184	1057.147483598252	89.732847576553	274.144069690514	1153.691302080371	133.200839677398	291.282663651682	1262.295281108472	58.502192049409	249.684106994331	1004.876868851231	1079.459253843901	231.449314515640	1068.150645790263	825.505688990091	215.529678088318	1195.104900730050	1122.140944177907	806.224981275004	1437.581748298172	1072.286487285810	746.283269429295	
107	37.643428571429	910.062899415521	1008.180712309524	530.232093937194	1065.719042063578	1434.046304427004	325.888681662838	1188.451509880026	1369.233560466920	474.240430054062	1127.050707853939	1445.763872020749	655.968070214363	1067.687493423762	1498.641375944248	480.576778926121	1149.233136627076	943.900674437711	622.011674128354	1107.037395852007	969.743283027986	350.876913893799	1173.445192686788	737.916266942684	588.893499590220	1089.320959726934	632.140499655519	654.664519816602	1157.396654308783	576.741414975144	569.915528415461	1152.045705723822	490.204663072054	575.064762012640	1193.718424427050	789.421387832916	370.593299399848	1147.170556490950	662.880895238677	289.613660379732	1255.354236494565	603.749171035896	342.570474979919	1276.489622546959	524.580623760825	331.624924730663	1232.793238179853	451.212105505853	320.822342131907	1116.912136153851	360.918598371663	273.588269537312	1161.613195207070	233.550360286823	317.613792388341	1121.124271032143	401.976876398181	582.009221700103	1049.133265441426	300.477701535627	645.899756133608	1083.209838789292	204.997435398639	578.511045111373	942.944068218284	43.367895781985	551.668585604043	1115.101771005889	96.636628255590	583.778580049015	1027.693784102006	37.391868122671	624.677454943438	1235.863543369547	42.412613383430	608.655311588514	1018.737333138400	95.191121327427	359.005732881710	1082.264213792126	81.448713362946	272.177465719160	1176.057600493168	130.684675322701	289.387563650391	1289.151882187769	63.091722277006	247.250736459654	996.756542810629	1080.491894922172	234.313736385213	1049.902569168768	824.412979041459	219.770087748279	1204.448048874941	1123.970399459940	805.291653670482	1448.052912698556	1088.382669363990	741.781472876473	
108	37.656857142857	908.946476443158	1008.573261182489	531.454036502739	1064.186460460524	1434.186694201089	326.808450694547	1187.815088894224	1368.848614481316	474.168934178680	1128.018324901021	1445.486237264669	656.404872961848	1067.552519372593	1498.526593196255	481.650366739507	1148.202117888166	943.653112601544	621.828629035486	1104.746044839865	969.689616775778	350.874974790335	1170.334204611783	737.353372894876	588.538186948615	1085.926930120644	632.097216685991	655.042353337406	1152.832707895377	576.231995285716	569.885111511070	1146.889653159085	490.037449053152	575.219704113864	1190.504260134829	789.102300608491	371.155196677238	1144.754681778154	663.116583729255	289.310977229380	1251.930065217938	603.669122515991	343.982392325082	1274.480470568423	526.516278445608	332.382668361081	1234.320271943243	452.994934049210	320.851856995384	1124.332253645203	356.114245812670	272.597610917356	1176.629814362666	231.152075073254	316.325891838202	1115.884272032451	401.833726318890	582.285643589414	1043.948444744827	300.325013674721	646.353005037792	1077.793225318538	204.914906233067	578.754339562619	937.479731901627	43.311552763163	551.751091677521	1109.625585618561	96.546515465958	583.795073596720	1022.253944674663	37.336496911443	624.770366586712	1230.421545731402	42.407591768152	608.620388372584	1042.419782421520	83.939459156747	357.040038219232	1106.936828436609	74.283463584250	270.265415034494	1197.788430388467	128.902029932844	287.721110517954	1314.937695108136	68.114235610777	245.613958821556	988.843988604330	1081.641325564758	236.840678660103	1032.481580893193	823.920921420334	223.950242402352	1213.437029869625	1125.689849650406	803.887306204074	1457.344733298706	1104.164082523510	737.111093399421	
109	37.670285714286	907.837861742168	1008.825228728140	532.420258115082	1062.772737219423	1434.261411831253	327.535808093156	1187.176908788308	1368.370897737939	473.988766722773	1128.834989172673	1445.070897977799	656.677733608365	1067.422492391310	1498.304157062730	482.566427188686	1147.203488373997	943.386139955060	621.537065438942	1102.592677500705	969.425147067297	350.729232012555	1167.382573558016	736.796719910649	588.205047312416	1082.653689803788	632.040002785245	655.387455347289	1148.415013651056	575.720215693888	569.870372286020	1141.856158026246	489.846091100253	575.386752629110	1187.198295166561	788.357429140163	371.717970641923	1142.291967715044	663.087457272655	288.809076302638	1248.280390901012	603.161635262010	345.394933583750	1272.179179653449	528.058762149794	333.146376770799	1235.418548399192	454.561104208332	320.920885913889	1131.493336986964	351.671263805533	271.445857549760	1190.737931809573	229.414979449806	315.166971322981	1110.751264040493	401.691415248996	582.563867546801	1038.825075910661	300.175182941750	646.806680043931	1072.416992187956	204.825605876849	578.994320962756	932.018629694973	43.259371497347	551.831317898901	1104.153425104044	96.445069297805	583.793381922103	1016.818575066680	37.283208876548	624.860081833045	1224.991548103459	42.399288067181	608.596383433987	1065.000369970673	74.457012371565	354.988062092675	1130.578259371025	68.357533469241	268.545800627256	1218.418865695850	127.846608535797	286.383192921204	1339.134653313187	73.329689811537	244.922498054654	981.215473180585	1082.893604279898	239.028875784771	1016.029803570024	823.946524494703	228.076113989007	1222.016195250109	1127.288524344022	802.026923853248	1465.463107129005	1119.483216454556	732.329344341183	
110	37.683714285714	906.740508335320	1008.943494308850	533.123760496523	1061.462694336498	1434.286505029526	328.065284104640	1186.522396034054	1367.827660293365	473.701437900871	1129.476744004835	1444.542241876039	656.784969641739	1067.268147195880	1497.999312815117	483.300676899521	1146.252528240854	943.122036557718	621.141221517200	1100.593086378482	968.981715072258	350.436409935762	1164.609758359106	736.249558262316	587.902989117454	1079.477756907242	631.982224296817	655.678676602203	1144.135466012072	575.209566097735	569.868213095047	1136.922285532443	489.633149767939	575.541744049874	1183.904229146766	787.309981911841	372.245199341237	1139.868592858376	662.834790906783	288.147459548599	1244.604941945577	602.354929611912	346.678635437527	1269.750083950778	529.249271378004	333.853314536963	1236.175580114908	455.911600819330	321.011724170694	1138.242197532062	347.706593990449	270.224346826815	1203.642549605558	228.318273839550	314.192844947223	1105.709819375415	401.555056381790	582.820870423441	1033.746160029665	300.043897511875	647.240866541677	1067.079109135293	204.737852203198	579.220245419312	926.563107572235	43.213193296348	551.908227979626	1098.688538322937	96.339343120038	583.778071383046	1011.389127077425	37.235213640145	624.946459849776	1219.572652088163	42.390803381466	608.585567224579	1085.879513029786	66.862472700261	353.002375351780	1152.588699405391	63.664112952521	267.145003553210	1237.488816264479	127.414019644015	285.436264617964	1361.252284498432	78.430065808633	245.207445593989	973.937834512708	1084.233126631483	240.878561443998	1000.648487200847	824.405274589899	232.141896017599	1230.119283006619	1128.764050236583	799.732067295302	1472.424817102174	1134.208792763466	727.489456461387	
111	37.697142857143	905.669185768664	1008.938627125014	533.561033558643	1060.235119436738	1434.278217947925	328.394045132172	1185.837121987771	1367.250652182699	473.306938637865	1129.924332337134	1443.929297605217	656.725613641519	1067.058376944698	1497.638065725543	483.832829408461	1145.365271017982	942.881068803071	620.642067119570	1098.765016132300	968.396311897562	349.992251767287	1162.019286198526	735.712978810401	587.631161261426	1076.365028200022	631.937828830266	655.895286097866	1139.974094035244	574.703451950242	569.874564432675	1132.059543448998	489.402098450048	575.665918749780	1180.738001173849	786.085975685954	372.682729728654	1137.543940519371	662.380947588957	287.389288991025	1241.090134076877	601.359122924149	347.707062575134	1267.337193825502	530.110864344471	334.444919377457	1236.663846552452	457.025763301756	321.105675488596	1144.393595026089	344.273686814984	269.048443637979	1215.071858947656	227.759967267345	313.447709031986	1100.737181283236	401.430057107976	583.039162831820	1028.687721159068	299.945811237371	647.637169082158	1061.773097738481	204.660484845471	579.424737117959	921.114040809606	43.174647566224	551.980367894117	1093.233744037588	96.237909416058	583.757064254033	1005.966126789073	37.195331585540	625.029516081609	1214.161833221870	42.385018633341	608.586893772002	1104.511933802368	61.113538354249	351.255466896561	1172.386475225265	60.088014916038	266.170171705309	1254.561588320671	127.421778794857	284.905748222355	1380.838905364362	83.075012114180	246.374186717674	967.063711100638	1085.641193299056	242.391815796587	986.396191544526	825.213615127362	236.123922061383	1237.673784211461	1130.118184054311	797.034099149629	1478.256193491396	1148.226539106877	722.640914522069	
